HIERARCHY
ROOT SpineBase
{
  OFFSET 0.000000 0.000000 0.000000
  CHANNELS 6 Xposition Yposition Zposition Zrotation Xrotation Yrotation
  JOINT SpineMid
  {
    OFFSET 0.000000 30.853340 0.000000
    CHANNELS 3 Zrotation Xrotation Yrotation
    JOINT SpineShoulder
    {
      OFFSET 0.029947 22.881497 -0.742765
      CHANNELS 3 Zrotation Xrotation Yrotation
      JOINT Neck
      {
        OFFSET 0.035527 7.562594 -0.553289
        CHANNELS 3 Zrotation Xrotation Yrotation
        JOINT Head
        {
          OFFSET -4.016927 13.173324 -0.029949
          CHANNELS 3 Zrotation Xrotation Yrotation
          End Site
          {
            OFFSET 0 0 0
          }
        }
      }
      JOINT ShoulderLeft
      {
        OFFSET -17.254647 -3.942484 9.257367
        CHANNELS 3 Zrotation Xrotation Yrotation
        JOINT ElbowLeft
        {
          OFFSET -2.940121 -26.490378 2.362946
          CHANNELS 3 Zrotation Xrotation Yrotation
          JOINT WristLeft
          {
            OFFSET -1.733704 -14.682136 -16.126936
            CHANNELS 3 Zrotation Xrotation Yrotation
            JOINT HandLeft
            {
              OFFSET -3.441826 0.905495 -4.514803
              CHANNELS 3 Zrotation Xrotation Yrotation
              JOINT HandTipLeft
              {
                OFFSET -1.769472 -2.797660 -5.680352
                CHANNELS 3 Zrotation Xrotation Yrotation
                End Site
                {
                  OFFSET 0 0 0
                }
              }
              JOINT ThumbLeft
              {
                OFFSET -3.090072 1.730860 -1.032240
                CHANNELS 3 Zrotation Xrotation Yrotation
                End Site
                {
                  OFFSET 0 0 0
                }
              }
            }
          }
        }
      }
      JOINT ShoulderRight
      {
        OFFSET 13.418391 -4.039440 -7.292918
        CHANNELS 3 Zrotation Xrotation Yrotation
        JOINT ElbowRight
        {
          OFFSET 5.873031 -22.562468 -2.865747
          CHANNELS 3 Zrotation Xrotation Yrotation
          JOINT WristRight
          {
            OFFSET -15.116545 -11.492617 -10.357634
            CHANNELS 3 Zrotation Xrotation Yrotation
            JOINT HandRight
            {
              OFFSET -5.151096 -1.760974 -0.554528
              CHANNELS 3 Zrotation Xrotation Yrotation
              JOINT HandTipRight
              {
                OFFSET -6.368856 -2.129832 -7.922762
                CHANNELS 3 Zrotation Xrotation Yrotation
                End Site
                {
                  OFFSET 0 0 0
                }
              }
              JOINT ThumbRight
              {
                OFFSET -2.381803 -1.451382 0.976634
                CHANNELS 3 Zrotation Xrotation Yrotation
                End Site
                {
                  OFFSET 0 0 0
                }
              }
            }
          }
        }
      }
    }
  }
  JOINT HipLeft
  {
    OFFSET -5.636905 -0.178058 -0.466801
    CHANNELS 3 Zrotation Xrotation Yrotation
    JOINT KneeLeft
    {
      OFFSET 0.560138 -36.474832 5.044814
      CHANNELS 3 Zrotation Xrotation Yrotation
      JOINT AnkleLeft
      {
        OFFSET 6.875638 -37.029966 11.373980
        CHANNELS 3 Zrotation Xrotation Yrotation
        JOINT FootLeft
        {
          OFFSET -1.954834 -8.097511 -5.030539
          CHANNELS 3 Zrotation Xrotation Yrotation
          End Site
          {
            OFFSET 0 0 0
          }
        }
      }
    }
  }
  JOINT HipRight
  {
    OFFSET 6.253781 1.561688 -5.941636
    CHANNELS 3 Zrotation Xrotation Yrotation
    JOINT KneeRight
    {
      OFFSET 7.037004 -36.221893 -2.268264
      CHANNELS 3 Zrotation Xrotation Yrotation
      JOINT AnkleRight
      {
        OFFSET 6.800681 -38.905317 6.938582
        CHANNELS 3 Zrotation Xrotation Yrotation
        JOINT FootRight
        {
          OFFSET -0.656632 -8.145966 -5.475445
          CHANNELS 3 Zrotation Xrotation Yrotation
          End Site
          {
            OFFSET 0 0 0
          }
        }
      }
    }
  }
}
MOTION
Frames: 9
Frame Time: 0.033333
-33.647809 83.304149 333.669539 -0.000000 0.000000 24.722785 -0.000000 0.000000 -24.722785 -0.000000 0.000000 0.000000 -0.000000 0.000000 0.000000 0.000000 0.000000 0.000000 -0.000000 0.000000 0.000000 -0.000000 0.000000 0.000000 -0.000000 0.000000 0.000000 -0.000000 0.000000 0.000000 0.000000 0.000000 0.000000 0.000000 0.000000 0.000000 -0.000000 0.000000 0.000000 -0.000000 0.000000 0.000000 -0.000000 0.000000 0.000000 -0.000000 0.000000 0.000000 0.000000 0.000000 0.000000 0.000000 0.000000 0.000000 -0.000000 0.000000 -24.722785 -0.000000 0.000000 0.000000 -0.000000 0.000000 0.000000 0.000000 0.000000 0.000000 -0.000000 0.000000 -24.722785 -0.000000 0.000000 0.000000 -0.000000 0.000000 0.000000 0.000000 0.000000 0.000000
-33.489002 83.305677 332.994957 -0.262338 0.290494 24.935504 0.115416 -0.374015 -24.934463 -0.000000 0.000000 0.000000 -0.000000 0.000000 0.000000 0.000000 0.000000 0.000000 -0.000000 0.000000 0.000000 0.399242 1.282637 -0.587477 2.865794 -6.990684 -3.609135 -1.559275 5.459830 0.304885 0.000000 0.000000 0.000000 0.000000 0.000000 0.000000 -0.000000 0.000000 0.000000 -0.000000 0.000000 0.000000 -1.035396 -0.414221 1.496043 0.657401 1.896580 -4.222946 0.000000 0.000000 0.000000 0.000000 0.000000 0.000000 0.115416 -0.374015 -24.934463 -0.000000 0.000000 0.000000 -0.496965 -1.088800 0.569635 0.000000 0.000000 0.000000 0.115416 -0.374015 -24.934463 -0.000000 0.000000 0.000000 -0.000000 0.000000 0.000000 0.000000 0.000000 0.000000
-33.347078 83.303864 332.372175 -0.511677 0.528765 25.164957 0.238293 -0.696145 -25.161148 -0.668666 0.531052 -0.048332 0.027767 -1.050422 -0.114435 0.000000 0.000000 0.000000 -0.548087 -0.019070 -0.116599 1.926727 1.896443 -0.884314 4.811665 -12.447437 -6.104702 -2.677242 9.414250 0.022786 0.000000 0.000000 0.000000 0.000000 0.000000 0.000000 0.669142 -0.530451 0.054528 0.896346 0.001349 -0.818020 -2.839665 -0.695966 3.218255 1.364637 3.276669 -7.192894 0.000000 0.000000 0.000000 0.000000 0.000000 0.000000 -0.624061 -1.142787 -25.268412 0.585243 -0.056856 -0.065672 -0.956269 -1.198085 1.249988 0.000000 0.000000 0.000000 -0.867177 -1.200211 -25.310424 1.128779 0.007069 0.022038 -0.344484 0.921124 0.102549 0.000000 0.000000 0.000000
-33.222037 83.298709 331.801193 -0.748076 0.714887 25.409256 -0.117514 0.035100 -25.434566 -0.089697 0.030946 -0.044758 -0.012454 -1.436811 -0.157850 0.000000 0.000000 0.000000 -0.720913 0.224621 -0.183020 2.611732 2.422834 -1.132918 6.058881 -16.433552 -7.824999 -3.276704 12.070597 -0.644358 0.000000 0.000000 0.000000 0.000000 0.000000 0.000000 0.015940 -0.400308 0.275695 2.121476 -0.333603 -1.273924 -3.972637 -0.816371 3.910902 2.075247 4.216966 -9.120523 0.000000 0.000000 0.000000 0.000000 0.000000 0.000000 -0.833090 -1.611503 -25.557099 0.772870 -0.067965 -0.106079 -1.362143 -1.635287 1.788640 0.000000 0.000000 0.000000 -1.193400 -1.724006 -25.633829 1.552475 0.051014 0.032010 -0.470428 1.307324 0.150413 0.000000 0.000000 0.000000
-33.113877 83.290212 331.282010 -0.971588 0.848926 25.666697 -0.137057 0.050704 -25.697995 -0.103020 0.041693 -0.056374 -0.088622 -1.731238 -0.191417 0.000000 0.000000 0.000000 -0.809855 0.633356 -0.250065 3.089798 2.673254 -1.249999 6.731468 -19.059014 -9.006952 -3.346244 13.615031 -1.519204 0.000000 0.000000 0.000000 0.000000 0.000000 0.000000 -0.006666 -0.428612 0.362046 2.576983 -0.459122 -1.496810 -4.975672 -0.793546 4.100189 2.771509 4.773019 -10.137437 0.000000 0.000000 0.000000 0.000000 0.000000 0.000000 -0.970296 -2.011962 -25.851261 0.889215 -0.072782 -0.151129 -1.722479 -1.951554 2.267360 0.000000 0.000000 0.000000 -1.447734 -2.198256 -25.971840 1.882739 0.120775 0.042906 -0.565832 1.645032 0.195451 0.000000 0.000000 0.000000
-33.022601 83.278373 330.814628 -1.182265 0.930928 25.935759 -0.146790 0.068115 -25.972267 -0.108073 0.052596 -0.066260 -0.200651 -1.934115 -0.214499 0.000000 0.000000 0.000000 -0.806909 1.198884 -0.315582 3.350953 2.656483 -1.237806 6.875181 -20.382505 -9.791569 -2.870153 14.147872 -2.488426 0.000000 0.000000 0.000000 0.000000 0.000000 0.000000 -0.043343 -0.404341 0.446294 2.906930 -0.589148 -1.619962 -5.879737 -0.622454 3.818318 3.454590 4.980296 -10.316824 0.000000 0.000000 0.000000 0.000000 0.000000 0.000000 -1.033685 -2.344600 -26.147805 0.933628 -0.074326 -0.200576 -2.038960 -2.139600 2.685069 0.000000 0.000000 0.000000 -1.629735 -2.624162 -26.321285 2.119743 0.215684 0.055865 -0.630850 1.934920 0.237344 0.000000 0.000000 0.000000
-32.996949 83.263089 330.471007 -1.410392 0.899247 26.223591 -0.143898 0.097181 -26.266049 -0.101710 0.069361 -0.075156 -0.446827 -1.845185 -0.176531 0.000000 0.000000 0.000000 -0.499748 2.502459 -0.411441 3.165643 1.829668 -0.991426 6.026310 -18.891716 -8.919123 -0.852707 12.477295 -4.998114 0.000000 0.000000 0.000000 0.000000 0.000000 0.000000 -0.037543 -0.253865 0.536096 3.166814 -0.742499 -1.735100 -7.011138 -0.275105 3.107865 3.947952 5.123474 -8.949594 0.000000 0.000000 0.000000 0.000000 0.000000 0.000000 -0.907162 -2.543734 -26.442324 0.889429 -0.047437 -0.237961 -2.440552 -2.309129 3.087787 0.000000 0.000000 0.000000 -1.535373 -2.868458 -26.655270 2.147699 0.148844 0.044579 -0.718628 1.384658 0.410255 0.000000 0.000000 0.000000
-32.948896 83.238351 330.107934 -1.597192 0.884231 26.505061 -0.113806 0.137881 -26.551266 -0.083177 0.093616 -0.080675 -0.709206 -1.912887 -0.179535 0.000000 0.000000 0.000000 -0.129968 3.594945 -0.491583 2.766226 0.965325 -0.685080 4.070837 -15.357404 -7.799597 1.622704 8.834119 -5.793373 0.000000 0.000000 0.000000 0.000000 0.000000 0.000000 -0.057083 -0.225488 0.593545 3.274006 -0.806354 -1.745804 -7.673091 0.054630 2.331751 4.234285 4.827096 -7.067754 0.000000 0.000000 0.000000 0.000000 0.000000 0.000000 -0.800609 -2.763245 -26.726299 0.761278 -0.037421 -0.298438 -2.802818 -2.276166 3.475585 0.000000 0.000000 0.000000 -1.512168 -3.284713 -27.025042 2.058482 0.369208 0.077807 -0.705086 1.243604 0.497798 0.000000 0.000000 0.000000
-32.875759 83.207161 329.755581 -1.745802 0.825524 26.819292 -0.086084 0.171786 -26.868882 -0.061119 0.106530 -0.084238 -0.907311 -1.779526 -0.135697 0.000000 0.000000 0.000000 0.166695 4.521154 -0.558353 2.317619 0.361174 -0.340570 0.907136 -10.129395 -6.813432 4.479964 4.860957 -5.473379 0.000000 0.000000 0.000000 0.000000 0.000000 0.000000 -0.079407 -0.153095 0.638775 3.039080 -0.868829 -1.445587 -8.242647 0.553087 1.092166 5.048089 3.965573 -4.937649 0.000000 0.000000 0.000000 0.000000 0.000000 0.000000 -0.706075 -2.921411 -27.042326 0.609523 -0.041573 -0.366083 -2.943045 -2.014456 3.693198 0.000000 0.000000 0.000000 -1.596739 -3.640301 -27.433960 2.081995 0.665592 0.122662 -0.740583 1.069224 0.582929 0.000000 0.000000 0.000000
